<?xml version="1.0" standalone="no"?>
<!DOCTYPE svg PUBLIC "-//W3C//DTD SVG 20010904//EN"
 "http://www.w3.org/TR/2001/REC-SVG-20010904/DTD/svg10.dtd">
<svg version="1.0" xmlns="http://www.w3.org/2000/svg"
 width="260.000000pt" height="260.000000pt" viewBox="0 0 260.000000 260.000000"
 preserveAspectRatio="xMidYMid meet">
<metadata>
Created by potrace 1.14, written by Peter Selinger 2001-2017
</metadata>
<g transform="translate(0.000000,260.000000) scale(0.100000,-0.100000)"
fill="#000000" stroke="none">
<path d="M630 1981 c-79 -25 -171 -96 -204 -159 -45 -87 -51 -213 -13 -295 37
-81 95 -130 240 -202 70 -35 129 -64 130 -63 1 0 28 -12 61 -28 32 -15 78 -47
102 -71 34 -35 44 -54 51 -96 22 -130 -46 -255 -158 -292 -156 -52 -313 20
-358 165 -8 25 -17 48 -21 52 -3 4 -35 -1 -70 -11 -61 -17 -65 -20 -63 -46 3
-40 55 -145 93 -189 49 -55 113 -95 186 -116 35 -10 67 -19 69 -19 3 -1 6 -1
8 -2 13 -5 106 -4 97 1 -6 4 12 10 42 13 108 13 225 91 282 190 60 101 70 258
23 360 -45 100 -119 157 -302 236 -200 87 -262 129 -280 190 -13 42 -7 101 15
145 62 129 271 151 376 39 19 -20 34 -39 34 -42 0 -3 4 -12 9 -20 7 -10 22 -5
70 28 56 38 60 44 50 63 -25 47 -104 119 -162 148 -57 28 -67 30 -171 29 -61
0 -122 -4 -136 -8z"/>
<path d="M1409 1943 c-1 -23 -2 -38 -44 -378 -20 -154 -38 -302 -41 -330 -3
-27 -7 -61 -9 -75 -2 -14 -7 -47 -10 -75 -6 -51 -12 -103 -20 -165 -3 -19 -7
-58 -10 -86 -3 -28 -7 -60 -9 -70 -2 -11 -7 -47 -11 -82 l-7 -62 189 0 c137 0
193 3 202 12 11 11 12 10 6 -1 -6 -10 -4 -12 6 -5 15 9 16 9 74 19 22 4 74 18
115 32 281 93 449 353 444 688 -3 235 -78 396 -235 501 -114 77 -195 94 -441
94 -182 0 -198 -1 -199 -17z m406 -78 c185 -43 327 -184 365 -365 12 -60 15
-191 4 -255 -31 -200 -156 -381 -317 -459 -110 -54 -173 -67 -354 -73 l-162
-5 4 38 c3 22 7 55 10 74 2 19 7 60 10 90 4 30 8 66 10 80 2 14 6 50 10 80 3
30 8 71 11 90 2 19 6 55 9 80 3 25 8 56 10 70 2 14 7 54 10 90 4 36 8 72 10
80 2 8 6 44 9 80 4 36 9 76 11 90 3 14 7 43 9 65 12 109 19 161 22 166 6 11
253 0 319 -16z"/>
</g>
</svg>
